# xmcd
#
# Track frame offsets:
#	187
#	18660
#	32147
#	45265
#	56750
#	70332
#	87657
#	101440
#	117217
#	128877
#
# Disc length: 1932 seconds
#
# Revision: 7
# Processed by: cddbd v1.5.2PL0 Copyright (c) Steve Scherf et al.
# Submitted via: EZCDAudioConverter 6.0.5.1
#
DISCID=86078a0a
DTITLE=Glen Campbell - Light Years
DYEAR=1988
DGENRE=Country
TTITLE0=Lightning In A Bottle
TTITLE1=If These Walls Could Speak
TTITLE2=More Than Enough
TTITLE3=Brand New Eyes
TTITLE4=Show Me The Way To Go
TTITLE5=Light Years
TTITLE6=Heart Of The Matter
TTITLE7=Almost Alright Again
TTITLE8=Saturday Night
TTITLE9=Our Movie
EXTD=
EXTT0=
EXTT1=
EXTT2=
EXTT3=
EXTT4=
EXTT5=
EXTT6=
EXTT7=
EXTT8=
EXTT9=
PLAYORDER=
